<?xml version="1.0" encoding="UTF-8"?>
<svg width="172px" height="81px" viewBox="0 0 172 81" version="1.1" xmlns="http://www.w3.org/2000/svg" xmlns:xlink="http://www.w3.org/1999/xlink">
    <!-- Generator: Sketch 63.1 (92452) - https://sketch.com -->
    <title>logo2</title>
    <desc>Created with Sketch.</desc>
    <defs>
        <path d="M11.0681198,76.0775467 L11.0681198,53.1122169 C4.78435992,50.9449878 0.280279995,45.0856087 0.280279995,38.1965151 C0.280279995,31.30686 4.78435992,25.4474809 11.0681198,23.2802518 L11.0681198,0.314921974 L156.931877,0.280673016 L156.931877,23.2460028 C163.216197,25.413232 167.720277,31.272611 167.720277,38.1617047 C167.720277,45.0513598 163.216197,50.9107388 156.931877,53.077968 L156.931877,76.0432978 L11.0681198,76.0775467 Z" id="path-1"></path>
        <filter x="-2.1%" y="-3.3%" width="104.2%" height="109.2%" filterUnits="objectBoundingBox" id="filter-2">
            <feOffset dx="0" dy="1" in="SourceAlpha" result="shadowOffsetOuter1"></feOffset>
            <feGaussianBlur stdDeviation="1" in="shadowOffsetOuter1" result="shadowBlurOuter1"></feGaussianBlur>
            <feColorMatrix values="0 0 0 0 0   0 0 0 0 0   0 0 0 0 0  0 0 0 0.5 0" type="matrix" in="shadowBlurOuter1"></feColorMatrix>
        </filter>
    </defs>
    <g id="Symbols" stroke="none" stroke-width="1" fill="none" fill-rule="evenodd">
        <g id="Logo-outlined" transform="translate(-36.000000, -10.000000)">
            <g id="logo2" transform="translate(38.000000, 11.000000)">
                <g id="Group-6">
                    <g id="Group-5" transform="translate(0.000000, 0.320833)">
                        <g id="Fill-1">
                            <use fill="black" fill-opacity="1" filter="url(#filter-2)" xlink:href="#path-1"></use>
                            <use fill="#395687" fill-rule="evenodd" xlink:href="#path-1"></use>
                        </g>
                    </g>
                    <path d="M54.8718733,46.2544289 L55.4624983,46.2325539 C55.3749983,45.8971373 55.11979,45.4158873 54.6968733,44.788804 L54.4562483,44.416929 L54.2156234,44.0450541 C54.0552067,43.7679707 53.9312484,43.5127624 53.8437484,43.2794291 C53.4791651,42.2148459 53.3406234,40.9752626 53.4281234,39.5606794 L53.4937484,38.7075545 C53.5083317,38.3575545 53.5156234,38.0585962 53.5156234,37.8106795 C53.5302067,37.0960963 53.4864567,36.4179713 53.3843734,35.7763047 C52.9760401,33.3117216 51.8677069,31.6710967 50.0593737,30.8544301 C51.2406236,29.8627635 51.9406235,28.8419302 52.1593735,27.7919303 C52.3927068,26.6981804 52.5458318,25.3783888 52.6187485,23.8325556 C52.6624985,23.015889 52.6989568,21.6669308 52.7281235,19.7856809 C52.7281235,19.5815143 52.7354151,19.2898476 52.7499985,18.910681 L52.7718735,17.9919311 C52.7864568,17.2335978 52.7791651,16.5919312 52.7499985,16.0669312 C52.6187485,14.5794313 52.2031235,13.4419314 51.5031236,12.6544315 C51.0072903,12.0856815 49.8624987,11.6408899 48.0687488,11.3200566 C46.3479156,11.0138066 44.8458324,10.9554733 43.5624992,11.1450566 C43.4312492,11.1596399 42.2864576,11.1888066 40.1281244,11.2325566 C39.0781245,11.2617232 38.2395829,11.2835982 37.6124996,11.2981816 C36.7229164,11.3273482 36.0520831,11.3638066 35.5999998,11.4075566 C35.5562498,11.5388066 35.5343748,11.6919315 35.5343748,11.8669315 L35.5343748,12.3263065 C35.5343748,12.5450565 35.5197915,12.8294315 35.4906248,13.1794314 L35.4249998,14.0325564 C35.4249998,14.2658897 35.4322915,14.5283897 35.4468748,14.8200563 L35.5124998,15.6075562 C35.5270831,15.8117229 35.5343748,16.0377645 35.5343748,16.2856812 L35.5124998,16.9638061 C35.5124998,17.4013061 35.5197915,17.9190144 35.5343748,18.516931 L35.5999998,20.0481809 C35.6145831,20.3252642 35.6218748,20.6169309 35.6218748,20.9231808 L35.6437498,21.7106808 C35.6437498,22.3669307 35.6583331,22.9138057 35.6874998,23.3513056 C35.8041664,25.4658888 35.9135414,27.9450553 36.0156248,30.7888051 C36.1031247,33.4138049 36.2124997,36.0023463 36.3437497,38.5544295 C36.3437497,38.6710961 36.3583331,39.1377628 36.3874997,39.9544294 L36.4093747,40.5231793 L36.4312497,41.1575543 C36.4458331,41.6679709 36.4604164,42.1054709 36.4749997,42.4700542 C36.5479164,44.7596373 36.5916664,45.9044289 36.6062497,45.9044289 C38.3999996,45.9773456 40.1499994,45.9773456 41.8562493,45.9044289 C41.9583326,45.9044289 41.9802076,44.4023457 41.9218743,41.3981793 C41.907291,40.8877626 41.8927076,40.2315127 41.8781243,39.4294294 L41.8562493,38.4013045 L41.8343743,37.3731796 C41.8052076,35.725263 41.7906243,34.4565131 41.7906243,33.5669299 L42.6437492,33.6106799 L43.4968742,33.6763049 C44.1093741,33.7492215 44.6343741,33.8585965 45.0718741,34.0044298 C46.1802073,34.3690131 46.9458322,35.0835964 47.3687489,36.1481797 C47.6749989,36.8773463 47.8499988,37.7231795 47.8937488,38.6856795 C47.8937488,39.0502628 47.8864572,39.4804711 47.8718738,39.9763044 L47.8281238,41.2669293 C47.7697905,43.3960958 48.2072905,45.051304 49.1406237,46.2325539 C50.9052069,46.3200539 52.8156235,46.3273456 54.8718733,46.2544289 Z M41.7906243,28.7763052 C41.776041,28.4263053 41.7906243,27.974222 41.8343743,27.4200553 L41.8999993,26.7638054 L41.9437493,26.0856804 C41.972916,24.7440139 42.0020826,23.387764 42.0312493,22.0169308 C42.0458326,20.2669309 42.038541,18.9033893 42.0093743,17.9263061 L41.9656243,16.4825562 C43.1177075,16.4388062 44.0874991,16.4606812 44.8749991,16.5481812 C45.8958323,16.6502645 46.6104156,17.0877645 47.0187489,17.8606811 C47.2958322,18.3710977 47.4927072,19.2242226 47.6093739,20.4200559 C47.649478,20.8077295 47.6712011,21.4956273 47.6745431,22.4837493 L47.6749989,22.7606807 C47.6749989,23.8544306 47.6604155,24.6929722 47.6312489,25.2763055 C47.5291655,26.8658887 46.8802073,27.908597 45.684374,28.4044303 C44.8968741,28.7252636 43.5989575,28.8492219 41.7906243,28.7763052 Z M70.0749971,46.1669289 C70.9645804,46.1377622 71.4677054,46.0138039 71.584372,45.7950539 C71.6135387,45.7367206 71.5989554,45.1898456 71.540622,44.1544291 C71.5260387,43.8627624 71.5260387,43.5273458 71.540622,43.1481791 L71.606247,42.1638042 C71.649997,41.2742209 71.6645804,40.6033877 71.649997,40.1513044 C70.6874971,40.0346377 69.3968722,40.0419294 67.7781223,40.1731794 L66.7718724,40.2606794 L65.7874975,40.3481793 C65.0145809,40.421096 64.3874976,40.464846 63.9062476,40.4794293 C63.6729143,39.5460961 63.570831,38.3648462 63.5999976,36.9356796 L63.6218726,36.0169297 L63.6656226,35.1200547 C63.6947893,34.3763048 63.7093726,33.7856798 63.7093726,33.3481799 C63.7093726,32.0210967 63.723956,30.7377634 63.7531226,29.4981802 C64.3510392,29.4398468 64.9343725,29.4106802 65.5031225,29.4106802 L66.2249974,29.4106802 L66.2249974,29.4106802 L66.9031224,29.4325552 C68.069789,29.4617218 69.1052056,29.4252635 70.0093721,29.3231802 C70.0531221,28.7398469 70.0604138,27.996097 70.0312471,27.0919304 L69.9874972,25.9981804 C69.9874972,25.5898471 69.9947888,25.1960972 70.0093721,24.8169305 C68.6822889,24.7731805 66.6624974,24.8096389 63.9499976,24.9263066 C63.9645809,24.6200556 63.9864559,24.2846389 64.0156226,23.9200556 L64.0593726,23.0231807 C64.1031226,22.2794307 64.1395809,21.6377641 64.1687476,21.0981808 C64.2416643,19.129431 64.2927059,17.3940144 64.3218726,15.8919312 C67.6906223,15.9356812 70.0749971,15.9283895 71.474997,15.8700562 L71.562497,14.6888063 L71.628122,13.5294314 C71.6864554,12.6544315 71.7010387,11.8669315 71.671872,11.1669316 C71.671872,11.1377649 71.3729137,11.1085983 70.7749971,11.0794316 C70.5854138,11.0794316 70.3666638,11.0721399 70.1187471,11.0575566 L69.7031222,11.0575566 L69.7031222,11.0575566 C68.8281222,11.0283899 67.8437473,10.9992233 66.7499974,10.9700566 C65.5395808,10.9408899 64.5479142,10.9263066 63.7749976,10.9263066 L62.8999977,10.9700566 L62.0031228,11.0138066 C61.2447895,11.0721399 60.6614562,11.1013066 60.2531229,11.1013066 C59.509373,11.0867233 59.0427063,11.1158899 58.853123,11.1888066 C58.503123,11.3492232 58.3208314,11.7356815 58.306248,12.3481815 C58.2770814,13.3252647 58.2770814,14.477348 58.306248,15.8044312 L58.371873,17.5544311 L58.415623,19.282556 C58.4739564,21.4263066 58.4666647,24.4158889 58.393748,28.2513053 C58.2770814,33.7054715 58.2114564,38.3721378 58.1968731,42.2513042 L58.2187481,43.1481791 L58.2406231,44.0669291 C58.2697897,44.8398457 58.2770814,45.4377623 58.262498,45.8606789 C59.9833313,45.9627622 61.5583311,45.9554706 62.9874977,45.8388039 C63.8187476,45.7804706 64.9999975,45.8242206 66.5312474,45.9700539 L67.4281223,46.0356789 L68.3249973,46.1231789 C68.9812472,46.1669289 69.5645805,46.1815122 70.0749971,46.1669289 Z M84.424996,46.0138039 C84.3374961,46.0283872 84.2864544,44.1471374 84.2718711,40.3700543 L84.2718711,36.3450547 C84.2864544,35.1346381 84.2937461,34.4273465 84.2937461,34.2231798 L84.403121,31.81693 L84.534371,29.4325552 C84.6364544,27.4346387 84.6947877,25.8304721 84.709371,24.6200556 C84.7239544,23.5992223 84.6729127,22.1263057 84.556246,20.2013059 L84.424996,17.9919311 C84.3958294,17.1606811 84.381246,16.4169312 84.381246,15.7606812 C85.7958293,15.7606812 87.2104125,15.7242229 88.6249957,15.6513062 L88.6906207,14.4700563 L88.7562457,13.3106814 C88.7999957,12.4356815 88.7999957,11.6554732 88.7562457,10.9700566 C88.7562457,10.8825566 86.6489542,10.8315149 82.4343712,10.8169316 L81.2312463,10.8169316 L80.0281214,10.7950566 L77.7968716,10.7950566 C76.2947883,10.7658899 75.3833301,10.7367233 75.0624968,10.7075566 C74.7854134,10.6638066 74.3479135,10.6638066 73.7499969,10.7075566 L73.7499969,11.0356816 L73.7718719,11.1669316 L73.7718719,11.3638066 C73.8156219,12.2971398 73.8302052,13.2523481 73.8156219,14.2294313 C73.8156219,15.2648479 73.8229135,15.7825562 73.8374969,15.7825562 C74.1729135,15.7971396 74.5666635,15.8044312 75.0187468,15.8044312 L75.5874967,15.7825562 L76.1999967,15.7825562 C77.0166633,15.7971396 77.5052049,15.8919312 77.6656216,16.0669312 C77.7822882,16.1981812 77.8697882,16.6429728 77.9281215,17.4013061 C77.9572882,17.7950561 77.9718715,18.2835977 77.9718715,18.866931 L77.9937465,20.3544309 C78.0083299,20.6606809 78.0593715,22.2721391 78.1468715,25.1888055 C78.1906215,26.8075554 78.2343715,28.1710969 78.2781215,29.2794302 C78.3218715,30.9419301 78.3656215,32.4585966 78.4093715,33.8294298 C78.6281215,41.8065126 78.7010381,45.7950539 78.6281215,45.7950539 C78.9635381,45.8096373 79.4302048,45.8388039 80.0281214,45.8825539 L80.7718713,45.9481789 L81.5374963,46.0138039 C82.7479128,46.1013039 83.7104128,46.1013039 84.424996,46.0138039 Z M93.8312453,46.2763039 C93.8749953,46.0575539 93.8968703,45.7950539 93.8968703,45.488804 L93.8749953,45.095054 L93.8749953,44.701304 C93.8895787,44.0013041 93.991662,43.1919291 94.1812453,42.2731792 L94.4656203,41.0481793 L94.7937452,39.8450544 C95.0270786,39.8596377 95.3770785,39.8450544 95.8437452,39.8013044 L96.3687451,39.7575544 C96.5583284,39.7429711 96.7260368,39.7356794 96.8718701,39.7356794 L97.70312,39.7575544 L98.53437,39.8013044 C99.2052032,39.8304711 99.7593699,39.8231794 100.19687,39.7794294 L100.481245,39.7575544 L100.76562,39.7575544 C101.013536,39.7429711 101.210411,39.7283877 101.356245,39.7138044 C101.443745,40.0783877 101.50937,40.4283877 101.55312,40.7638043 L101.72812,41.9888042 L101.881245,43.2356791 L101.94687,43.8700541 L102.012495,44.482554 C102.027078,44.5846374 102.063536,44.723179 102.12187,44.898179 L102.187495,45.095054 L102.231245,45.313804 C102.260411,45.401304 102.274995,45.5179706 102.274995,45.6638039 L102.274995,46.0356789 C102.610411,46.0502622 103.08437,46.0429706 103.69687,46.0138039 L104.39687,45.9919289 L105.118744,45.9919289 L105.774994,46.0138039 L106.453119,46.0575539 C106.978119,46.0721372 107.422911,46.0502622 107.787494,45.9919289 C107.772911,45.4960956 107.721869,44.8908873 107.634369,44.1763041 L107.503119,43.2575541 L107.371869,42.3606792 C106.205203,32.9398466 104.710411,24.8460972 102.887495,18.0794311 C102.858328,18.0210977 102.814578,17.8679727 102.756245,17.6200561 L102.712495,17.4231811 L102.64687,17.2263061 C102.60312,17.0513061 102.566661,16.8908895 102.537495,16.7450562 C102.435411,16.3513062 102.34062,15.9794312 102.25312,15.6294312 C102.136453,15.1919313 102.027078,14.7908896 101.924995,14.4263063 C101.356245,12.2825565 101.020828,11.2106816 100.918745,11.2106816 C100.772911,11.1960982 100.54687,11.1815149 100.24062,11.1669316 L99.8031199,11.1231816 L99.3218699,11.0794316 C98.49062,11.0210983 97.7833284,10.9992233 97.1999951,11.0138066 C95.3916619,11.0283899 94.276037,11.3419316 93.8531203,11.9544315 C93.6781203,12.2169315 93.5687453,12.6471398 93.5249953,13.2450564 L93.5031203,13.5950564 L93.4812453,13.9669314 C93.466662,14.2440147 93.444787,14.455473 93.4156204,14.6013063 L92.8468704,17.5763061 L92.2343704,20.5294309 C91.7239538,22.9794307 91.3447872,24.9554722 91.0968705,26.4575554 L90.3531206,30.8544301 C89.842704,33.6544299 89.3468707,36.2648463 88.8656207,38.6856795 C88.6031207,39.939846 88.3260374,41.2377626 88.0343708,42.5794292 L87.5968708,44.526304 L87.4874958,45.007554 L87.3781208,45.466929 L87.3343708,45.6200539 L87.2468708,45.7950539 C87.1885375,45.9263039 87.1666625,46.0356789 87.1812458,46.1231789 C87.3270792,46.1231789 87.5166625,46.1377622 87.7499958,46.1669289 L88.3187457,46.2325539 C88.770829,46.2471372 89.3979123,46.2398456 90.1999956,46.2106789 L91.1406205,46.1888039 L92.0812455,46.1888039 L92.9562454,46.2544289 C93.3062454,46.2690122 93.597912,46.2763039 93.8312453,46.2763039 Z M98.00937,34.8575548 L96.8937451,34.7919298 L95.7781202,34.7044298 L96.0406202,32.7794299 L96.3249951,30.8544301 C96.3833285,30.4315134 96.4999951,29.9210968 96.6749951,29.3231802 L96.9156201,28.5575552 L97.1343701,27.7700553 C97.5135367,26.5013054 97.6885367,25.4658888 97.65937,24.6638055 C98.00937,25.0721388 98.27187,25.7502638 98.44687,26.6981804 L98.556245,27.3106803 L98.62187,27.9013053 C98.6947866,28.3679719 98.7604116,28.7252636 98.8187449,28.9731802 C98.9208283,29.3669302 99.0520783,29.8554718 99.2124949,30.4388051 L99.6281199,31.86068 C99.8960886,32.843232 100.080317,33.7085477 100.180805,34.4566271 L100.218745,34.7700548 C99.5916615,34.8575548 98.8552033,34.8867214 98.00937,34.8575548 Z M110.828119,46.0794289 L110.849994,46.0356789 L110.871869,46.0138039 C111.032286,46.0429706 111.236452,46.0575539 111.484369,46.0575539 C111.673952,46.0429706 111.885411,46.0283872 112.118744,46.0138039 C112.891661,45.9554706 113.824994,45.9554706 114.918744,46.0138039 C115.049994,46.0283872 115.152077,46.0283872 115.224994,46.0138039 L115.399994,46.0138039 C115.502077,45.9992206 115.655202,45.9992206 115.859369,46.0138039 C116.107285,46.0429706 116.442702,46.0502622 116.865619,46.0356789 L116.887494,45.6200539 L116.865619,45.204429 C116.865619,45.0002623 116.880202,44.7158873 116.909369,44.351304 L116.974994,43.4981791 C116.989577,43.3085958 116.953119,43.0460958 116.865619,42.7106792 L116.778119,42.3169292 L116.712494,41.9450542 C116.69791,41.7408876 116.690619,41.5075543 116.690619,41.2450543 L116.712494,40.5888043 C116.712494,40.1513044 116.705202,39.6335961 116.690619,39.0356794 L116.624994,37.4825546 C116.61041,37.2200546 116.61041,36.9138046 116.624994,36.5638046 L116.668744,35.6450547 C116.727077,34.8429714 116.74166,34.2377631 116.712494,33.8294298 C116.595827,31.6127633 116.493744,29.1335969 116.406244,26.3919304 C116.377077,25.8377638 116.384369,25.2179722 116.428119,24.5325556 L116.515619,23.6138056 L116.603119,22.6950557 C116.778119,21.0617225 116.843744,19.8294309 116.799994,18.998181 C116.78541,18.866931 116.770827,18.3929727 116.756244,17.5763061 L116.734369,17.0075561 L116.712494,16.3950562 C116.69791,15.8846396 116.683327,15.4471396 116.668744,15.0825563 C116.595827,12.7783898 116.544785,11.6263065 116.515619,11.6263065 C114.459369,11.5388066 112.468744,11.5388066 110.543744,11.6263065 C110.441661,14.0471397 110.405202,17.0440145 110.434369,20.6169309 L110.499994,25.1231805 C110.512147,26.6544304 110.519236,27.9527521 110.521261,29.0181455 L110.521869,29.6294302 C110.521869,30.3877634 110.499994,31.5398467 110.456244,33.0856799 L110.390619,36.3450547 C110.361452,37.5700546 110.361452,38.6565128 110.390619,39.6044294 C110.419786,40.989846 110.492702,42.0981792 110.609369,42.9294291 C110.623952,43.1335958 110.660411,43.6513041 110.718744,44.482554 L110.740619,44.963804 L110.762494,45.401304 C110.777077,45.7075539 110.791661,45.9117206 110.806244,46.0138039 C110.806244,46.0721372 110.813536,46.0940122 110.828119,46.0794289 Z M123.274993,45.8388039 L124.762493,45.7075539 C125.31666,45.6638039 125.805201,45.6492206 126.228118,45.6638039 C129.640618,45.6929706 132.287492,45.6710956 134.168742,45.5981789 C134.154159,45.5981789 134.132284,44.6283874 134.103117,42.6888042 C134.088534,42.3533875 134.081242,41.9888042 134.081242,41.5950542 C134.081242,41.3033876 134.073951,40.9752626 134.059367,40.6106793 C134.044784,39.9106794 134.037492,39.5388044 134.037492,39.4950566 C133.337492,39.4658877 132.396867,39.4950566 131.215617,39.5825544 L129.815618,39.6700544 C129.276034,39.6992211 128.809368,39.7138044 128.415618,39.7138044 C127.846868,39.7138044 127.132284,39.6554711 126.271868,39.5388044 C126.271868,38.1679712 126.293743,36.4544296 126.337493,34.3981798 L126.403118,31.81693 L126.446868,29.2138052 C126.519784,25.0575555 126.490618,21.6231808 126.359368,18.910681 C126.359368,18.7940143 126.344784,18.3273477 126.315618,17.5106811 L126.293743,16.9419311 L126.271868,16.3075562 C126.257285,15.8117229 126.242701,15.3742229 126.228118,14.9950566 C126.155201,12.7054731 126.111451,11.5606816 126.096868,11.5606816 C124.026035,11.4731816 122.03541,11.4731816 120.124993,11.5606816 C119.993743,14.521098 119.949993,18.1013061 119.993743,22.3013057 L120.081243,27.7044303 L120.168743,33.0856799 C120.183327,33.7565132 120.168743,34.5731798 120.124993,35.5356797 L120.081243,36.7606796 L120.037493,37.9638045 C119.964577,39.9471377 120.008327,41.5804709 120.168743,42.8638042 C120.212493,43.2138041 120.248952,43.7315124 120.278118,44.416929 L120.321868,45.204429 L120.387493,45.9700539 C121.043743,46.0138039 122.006243,45.9700539 123.274993,45.8388039 Z" id="Retail" fill="#FFFFFF" fill-rule="nonzero"></path>
                    <path d="M31.0975981,66.9999969 L31.937598,59.0703975 L31.971198,59.0703975 L32.8111979,66.9999969 L35.1127978,66.9999969 L36.3055977,55.2399978 L34.7095978,55.2399978 L33.8863979,64.2783971 L33.8527979,64.2783971 L32.9791979,55.2399978 L30.9631981,55.2399978 L30.0895982,64.2783971 L30.0559982,64.2783971 L29.2327982,55.2399978 L27.4519984,55.2399978 L28.6447983,66.9999969 L31.0975981,66.9999969 Z M39.9315974,67.1679969 C40.8387973,67.1679969 41.5331973,66.9103969 42.0147972,66.3951969 C42.4963972,65.879997 42.7371972,65.151997 42.7371972,64.2111971 L42.7371972,64.2111971 L42.7371972,58.0287976 C42.7371972,57.0879977 42.4963972,56.3599977 42.0147972,55.8447978 C41.5331973,55.3295978 40.8387973,55.0719978 39.9315974,55.0719978 C39.0243975,55.0719978 38.3299975,55.3295978 37.8483976,55.8447978 C37.3667976,56.3599977 37.1259976,57.0879977 37.1259976,58.0287976 L37.1259976,58.0287976 L37.1259976,64.2111971 C37.1259976,65.151997 37.3667976,65.879997 37.8483976,66.3951969 C38.3299975,66.9103969 39.0243975,67.1679969 39.9315974,67.1679969 Z M39.9315974,65.487997 C39.2931975,65.487997 38.9739975,65.101597 38.9739975,64.3287971 L38.9739975,64.3287971 L38.9739975,57.9111976 C38.9739975,57.1383977 39.2931975,56.7519977 39.9315974,56.7519977 C40.5699974,56.7519977 40.8891973,57.1383977 40.8891973,57.9111976 L40.8891973,57.9111976 L40.8891973,64.3287971 C40.8891973,65.101597 40.5699974,65.487997 39.9315974,65.487997 Z M45.842397,66.9999969 L45.842397,61.9599973 L46.4807969,61.9599973 C46.9063969,61.9599973 47.2059968,62.0663973 47.3795968,62.2791973 C47.5531968,62.4919972 47.6399968,62.8671972 47.6399968,63.4047972 L47.6399968,63.4047972 L47.6399968,65.555197 C47.6399968,65.991997 47.6511968,66.294397 47.6735968,66.4623969 C47.6959968,66.6303969 47.7407968,66.8095969 47.8079968,66.9999969 L47.8079968,66.9999969 L49.6895967,66.9999969 C49.5999967,66.7983969 49.5439967,66.5939969 49.5215967,66.3867969 C49.4991967,66.179597 49.4879967,65.907997 49.4879967,65.571997 L49.4879967,65.571997 L49.4879967,63.5055972 C49.4879967,62.8111972 49.3955967,62.2567973 49.2107967,61.8423973 C49.0259967,61.4279973 48.7095967,61.1535973 48.2615968,61.0191974 L48.2615968,61.0191974 L48.2615968,60.9855974 C49.0679967,60.6607974 49.4711967,59.8879974 49.4711967,58.6671975 L49.4711967,58.6671975 L49.4711967,57.9447976 C49.4711967,57.0263977 49.2527967,56.3459977 48.8159967,55.9035978 C48.3791968,55.4611978 47.6847968,55.2399978 46.7327969,55.2399978 L46.7327969,55.2399978 L43.9943971,55.2399978 L43.9943971,66.9999969 L45.842397,66.9999969 Z M46.5143969,60.2799974 L45.842397,60.2799974 L45.842397,56.9199977 L46.6823969,56.9199977 C47.0071969,56.9199977 47.2451968,57.0151977 47.3963968,57.2055977 C47.5475968,57.3959976 47.6231968,57.7039976 47.6231968,58.1295976 L47.6231968,58.1295976 L47.6231968,59.0367975 C47.6231968,59.4847975 47.5307968,59.8039975 47.3459968,59.9943974 C47.1611968,60.1847974 46.8839969,60.2799974 46.5143969,60.2799974 L46.5143969,60.2799974 Z M52.6267964,66.9999969 L52.6267964,63.2535972 L53.3659964,61.7583973 L54.9283963,66.9999969 L56.8603961,66.9999969 L54.6259963,59.5575975 L56.8267961,55.2399978 L54.9787963,55.2399978 L52.6267964,60.1959974 L52.6267964,55.2399978 L50.7787966,55.2399978 L50.7787966,66.9999969 L52.6267964,66.9999969 Z M62.7879957,66.9999969 L62.7879957,65.319997 L59.5959959,65.319997 L59.5959959,61.7079973 L62.1327957,61.7079973 L62.1327957,60.0279974 L59.5959959,60.0279974 L59.5959959,56.9199977 L62.7879957,56.9199977 L62.7879957,55.2399978 L57.747996,55.2399978 L57.747996,66.9999969 L62.7879957,66.9999969 Z M65.7083954,66.9999969 L65.7083954,61.9599973 L66.3467954,61.9599973 C66.7723953,61.9599973 67.0719953,62.0663973 67.2455953,62.2791973 C67.4191953,62.4919972 67.5059953,62.8671972 67.5059953,63.4047972 L67.5059953,63.4047972 L67.5059953,65.555197 C67.5059953,65.991997 67.5171953,66.294397 67.5395953,66.4623969 C67.5619953,66.6303969 67.6067953,66.8095969 67.6739953,66.9999969 L67.6739953,66.9999969 L69.5555951,66.9999969 C69.4659951,66.7983969 69.4099951,66.5939969 69.3875951,66.3867969 C69.3651951,66.179597 69.3539951,65.907997 69.3539951,65.571997 L69.3539951,65.571997 L69.3539951,63.5055972 C69.3539951,62.8111972 69.2615952,62.2567973 69.0767952,61.8423973 C68.8919952,61.4279973 68.5755952,61.1535973 68.1275952,61.0191974 L68.1275952,61.0191974 L68.1275952,60.9855974 C68.9339952,60.6607974 69.3371952,59.8879974 69.3371952,58.6671975 L69.3371952,58.6671975 L69.3371952,57.9447976 C69.3371952,57.0263977 69.1187952,56.3459977 68.6819952,55.9035978 C68.2451952,55.4611978 67.5507953,55.2399978 66.5987954,55.2399978 L66.5987954,55.2399978 L63.8603956,55.2399978 L63.8603956,66.9999969 L65.7083954,66.9999969 Z M66.3803954,60.2799974 L65.7083954,60.2799974 L65.7083954,56.9199977 L66.5483954,56.9199977 C66.8731953,56.9199977 67.1111953,57.0151977 67.2623953,57.2055977 C67.4135953,57.3959976 67.4891953,57.7039976 67.4891953,58.1295976 L67.4891953,58.1295976 L67.4891953,59.0367975 C67.4891953,59.4847975 67.3967953,59.8039975 67.2119953,59.9943974 C67.0271953,60.1847974 66.7499953,60.2799974 66.3803954,60.2799974 L66.3803954,60.2799974 Z M75.9507946,67.1679969 C76.8355946,67.1679969 77.5103945,66.9159969 77.9751945,66.4119969 C78.4399945,65.907997 78.6723944,65.196797 78.6723944,64.2783971 L78.6723944,64.2783971 L78.6723944,62.6151972 L76.9251946,62.6151972 L76.9251946,64.4127971 C76.9251946,65.129597 76.6171946,65.487997 76.0011946,65.487997 C75.3851947,65.487997 75.0771947,65.129597 75.0771947,64.4127971 L75.0771947,64.4127971 L75.0771947,57.8439976 C75.0771947,57.1159977 75.3851947,56.7519977 76.0011946,56.7519977 C76.6171946,56.7519977 76.9251946,57.1159977 76.9251946,57.8439976 L76.9251946,57.8439976 L76.9251946,59.2047975 L78.6723944,59.2047975 L78.6723944,57.9615976 C78.6723944,57.0431977 78.4399945,56.3319977 77.9751945,55.8279978 C77.5103945,55.3239978 76.8355946,55.0719978 75.9507946,55.0719978 C75.0659947,55.0719978 74.3911948,55.3239978 73.9263948,55.8279978 C73.4615948,56.3319977 73.2291949,57.0431977 73.2291949,57.9615976 L73.2291949,57.9615976 L73.2291949,64.2783971 C73.2291949,65.196797 73.4615948,65.907997 73.9263948,66.4119969 C74.3911948,66.9159969 75.0659947,67.1679969 75.9507946,67.1679969 Z M82.4999941,67.1679969 C83.4071941,67.1679969 84.101594,66.9103969 84.583194,66.3951969 C85.0647939,65.879997 85.3055939,65.151997 85.3055939,64.2111971 L85.3055939,64.2111971 L85.3055939,58.0287976 C85.3055939,57.0879977 85.0647939,56.3599977 84.583194,55.8447978 C84.101594,55.3295978 83.4071941,55.0719978 82.4999941,55.0719978 C81.5927942,55.0719978 80.8983943,55.3295978 80.4167943,55.8447978 C79.9351943,56.3599977 79.6943944,57.0879977 79.6943944,58.0287976 L79.6943944,58.0287976 L79.6943944,64.2111971 C79.6943944,65.151997 79.9351943,65.879997 80.4167943,66.3951969 C80.8983943,66.9103969 81.5927942,67.1679969 82.4999941,67.1679969 Z M82.4999941,65.487997 C81.8615942,65.487997 81.5423942,65.101597 81.5423942,64.3287971 L81.5423942,64.3287971 L81.5423942,57.9111976 C81.5423942,57.1383977 81.8615942,56.7519977 82.4999941,56.7519977 C83.1383941,56.7519977 83.4575941,57.1383977 83.4575941,57.9111976 L83.4575941,57.9111976 L83.4575941,64.3287971 C83.4575941,65.101597 83.1383941,65.487997 82.4999941,65.487997 Z M88.2091937,66.9999969 L88.2091937,58.4151976 L88.2427937,58.4151976 L90.4603935,66.9999969 L92.3587934,66.9999969 L92.3587934,55.2399978 L90.7123935,55.2399978 L90.7123935,62.2791973 L90.6787935,62.2791973 L88.8811937,55.2399978 L86.5627938,55.2399978 L86.5627938,66.9999969 L88.2091937,66.9999969 Z M95.5983931,66.9999969 L95.5983931,61.8759973 L97.983993,61.8759973 L97.983993,60.1959974 L95.5983931,60.1959974 L95.5983931,56.9199977 L98.6391929,56.9199977 L98.6391929,55.2399978 L93.7503933,55.2399978 L93.7503933,66.9999969 L95.5983931,66.9999969 Z M104.583592,66.9999969 L104.583592,65.319997 L101.391593,65.319997 L101.391593,61.7079973 L103.928393,61.7079973 L103.928393,60.0279974 L101.391593,60.0279974 L101.391593,56.9199977 L104.583592,56.9199977 L104.583592,55.2399978 L99.5435928,55.2399978 L99.5435928,66.9999969 L104.583592,66.9999969 Z M108.091992,67.1679969 C108.999192,67.1679969 109.690792,66.9103969 110.166792,66.3951969 C110.642792,65.879997 110.880792,65.140797 110.880792,64.1775971 C110.880792,63.4383972 110.735192,62.7943972 110.443992,62.2455973 C110.152792,61.6967973 109.620792,61.0863974 108.847992,60.4143974 C108.243192,59.8879974 107.825992,59.4399975 107.596392,59.0703975 C107.366792,58.7007975 107.251992,58.3031976 107.251992,57.8775976 C107.251992,57.1271977 107.559992,56.7519977 108.175992,56.7519977 C108.478392,56.7519977 108.707992,56.8443977 108.864792,57.0291977 C109.021592,57.2139977 109.099992,57.5079976 109.099992,57.9111976 L109.099992,57.9111976 L109.099992,58.5159976 L110.847192,58.5159976 L110.847192,58.0287976 C110.847192,57.0767977 110.620392,56.3459977 110.166792,55.8363978 C109.713192,55.3267978 109.043992,55.0719978 108.159192,55.0719978 C107.263192,55.0719978 106.579992,55.3267978 106.109592,55.8363978 C105.639192,56.3459977 105.403992,57.0655977 105.403992,57.9951976 C105.403992,58.6783975 105.555192,59.2915975 105.857592,59.8347974 C106.159992,60.3779974 106.691992,60.9855974 107.453592,61.6575973 C108.058392,62.1839973 108.472792,62.6347972 108.696792,63.0099972 C108.920792,63.3851972 109.032792,63.8191971 109.032792,64.3119971 C109.032792,64.7263971 108.951592,65.0259971 108.789192,65.210797 C108.626792,65.395597 108.388792,65.487997 108.075192,65.487997 C107.436792,65.487997 107.117592,65.107197 107.117592,64.3455971 L107.117592,64.3455971 L107.117592,63.5391972 L105.370392,63.5391972 L105.370392,64.2111971 C105.370392,65.163197 105.599992,65.893997 106.059192,66.4035969 C106.518392,66.9131969 107.195992,67.1679969 108.091992,67.1679969 Z M114.355592,67.1679969 C115.262792,67.1679969 115.954392,66.9103969 116.430392,66.3951969 C116.906392,65.879997 117.144391,65.140797 117.144391,64.1775971 C117.144391,63.4383972 116.998792,62.7943972 116.707592,62.2455973 C116.416392,61.6967973 115.884392,61.0863974 115.111592,60.4143974 C114.506792,59.8879974 114.089592,59.4399975 113.859992,59.0703975 C113.630392,58.7007975 113.515592,58.3031976 113.515592,57.8775976 C113.515592,57.1271977 113.823592,56.7519977 114.439592,56.7519977 C114.741992,56.7519977 114.971592,56.8443977 115.128392,57.0291977 C115.285192,57.2139977 115.363592,57.5079976 115.363592,57.9111976 L115.363592,57.9111976 L115.363592,58.5159976 L117.110791,58.5159976 L117.110791,58.0287976 C117.110791,57.0767977 116.883992,56.3459977 116.430392,55.8363978 C115.976792,55.3267978 115.307592,55.0719978 114.422792,55.0719978 C113.526792,55.0719978 112.843592,55.3267978 112.373192,55.8363978 C111.902792,56.3459977 111.667592,57.0655977 111.667592,57.9951976 C111.667592,58.6783975 111.818792,59.2915975 112.121192,59.8347974 C112.423592,60.3779974 112.955592,60.9855974 113.717192,61.6575973 C114.321992,62.1839973 114.736392,62.6347972 114.960392,63.0099972 C115.184392,63.3851972 115.296392,63.8191971 115.296392,64.3119971 C115.296392,64.7263971 115.215192,65.0259971 115.052792,65.210797 C114.890392,65.395597 114.652392,65.487997 114.338792,65.487997 C113.700392,65.487997 113.381192,65.107197 113.381192,64.3455971 L113.381192,64.3455971 L113.381192,63.5391972 L111.633992,63.5391972 L111.633992,64.2111971 C111.633992,65.163197 111.863592,65.893997 112.322792,66.4035969 C112.781992,66.9131969 113.459592,67.1679969 114.355592,67.1679969 Z M120.064791,66.9999969 L120.064791,55.2399978 L118.216791,55.2399978 L118.216791,66.9999969 L120.064791,66.9999969 Z M124.127591,67.1679969 C125.034791,67.1679969 125.729191,66.9103969 126.210791,66.3951969 C126.692391,65.879997 126.933191,65.151997 126.933191,64.2111971 L126.933191,64.2111971 L126.933191,58.0287976 C126.933191,57.0879977 126.692391,56.3599977 126.210791,55.8447978 C125.729191,55.3295978 125.034791,55.0719978 124.127591,55.0719978 C123.220391,55.0719978 122.525991,55.3295978 122.044391,55.8447978 C121.562791,56.3599977 121.321991,57.0879977 121.321991,58.0287976 L121.321991,58.0287976 L121.321991,64.2111971 C121.321991,65.151997 121.562791,65.879997 122.044391,66.3951969 C122.525991,66.9103969 123.220391,67.1679969 124.127591,67.1679969 Z M124.127591,65.487997 C123.489191,65.487997 123.169991,65.101597 123.169991,64.3287971 L123.169991,64.3287971 L123.169991,57.9111976 C123.169991,57.1383977 123.489191,56.7519977 124.127591,56.7519977 C124.765991,56.7519977 125.085191,57.1383977 125.085191,57.9111976 L125.085191,57.9111976 L125.085191,64.3287971 C125.085191,65.101597 124.765991,65.487997 124.127591,65.487997 Z M129.836791,66.9999969 L129.836791,58.4151976 L129.870391,58.4151976 L132.08799,66.9999969 L133.98639,66.9999969 L133.98639,55.2399978 L132.33999,55.2399978 L132.33999,62.2791973 L132.30639,62.2791973 L130.50879,55.2399978 L128.190391,55.2399978 L128.190391,66.9999969 L129.836791,66.9999969 Z M137.78039,67.1679969 C138.68759,67.1679969 139.37919,66.9103969 139.85519,66.3951969 C140.33119,65.879997 140.56919,65.140797 140.56919,64.1775971 C140.56919,63.4383972 140.42359,62.7943972 140.13239,62.2455973 C139.84119,61.6967973 139.30919,61.0863974 138.53639,60.4143974 C137.93159,59.8879974 137.51439,59.4399975 137.28479,59.0703975 C137.05519,58.7007975 136.94039,58.3031976 136.94039,57.8775976 C136.94039,57.1271977 137.24839,56.7519977 137.86439,56.7519977 C138.16679,56.7519977 138.39639,56.8443977 138.55319,57.0291977 C138.70999,57.2139977 138.78839,57.5079976 138.78839,57.9111976 L138.78839,57.9111976 L138.78839,58.5159976 L140.53559,58.5159976 L140.53559,58.0287976 C140.53559,57.0767977 140.30879,56.3459977 139.85519,55.8363978 C139.40159,55.3267978 138.73239,55.0719978 137.84759,55.0719978 C136.95159,55.0719978 136.26839,55.3267978 135.79799,55.8363978 C135.32759,56.3459977 135.09239,57.0655977 135.09239,57.9951976 C135.09239,58.6783975 135.24359,59.2915975 135.54599,59.8347974 C135.84839,60.3779974 136.38039,60.9855974 137.14199,61.6575973 C137.74679,62.1839973 138.16119,62.6347972 138.38519,63.0099972 C138.60919,63.3851972 138.72119,63.8191971 138.72119,64.3119971 C138.72119,64.7263971 138.63999,65.0259971 138.47759,65.210797 C138.31519,65.395597 138.07719,65.487997 137.76359,65.487997 C137.12519,65.487997 136.80599,65.107197 136.80599,64.3455971 L136.80599,64.3455971 L136.80599,63.5391972 L135.05879,63.5391972 L135.05879,64.2111971 C135.05879,65.163197 135.28839,65.893997 135.74759,66.4035969 C136.20679,66.9131969 136.88439,67.1679969 137.78039,67.1679969 Z" id="WorkerConfessions" fill="#FFFFFF" fill-rule="nonzero"></path>
                </g>
            </g>
        </g>
    </g>
</svg>